# xmcd
#
# Track frame offsets: 
#        150
#        14795
#        28127
#        41967
#        55490
#        68867
#        81675
#        95635
#        110035
#        125980
#        139427
#        154872
#        169932
#        183177
#        197687
#        213632
#        227935
#        241612
#        257207
#        271800
#
# Disc length: 3824 seconds
#
# Revision: 3
# Processed by: cddbd v1.5.2PL0 Copyright (c) Steve Scherf et al.
# Submitted via: ExactAudioCopy v0.95b2
#
DISCID=410eee14
DTITLE=Bessie Smith - The Complete Recordings Vol. 4 (Disk 2)
DYEAR=1993
DGENRE=Blues
TTITLE0=He's Got Me Goin'
TTITLE1=It Makes My Love Come Down
TTITLE2=Wasted Life Blues
TTITLE3=Dirty No-Gooder's Blues
TTITLE4=Blue Spirit Blues
TTITLE5=Worn Out Papa Blues
TTITLE6=You Don't Understand
TTITLE7=Don't Cry Baby
TTITLE8=Keep It To Yourself
TTITLE9=New Orleans Hop Scop Blues
TTITLE10=See If I'll Care
TTITLE11=Baby Have Pity On Me
TTITLE12=On Revival day (A Rhythmic Spiritual)
TTITLE13=Moan, You Moaners
TTITLE14=Hustlin' Dan
TTITLE15=Black Mountain Blues
TTITLE16=In The House Blues
TTITLE17=Long Old Road
TTITLE18=Blue Blues
TTITLE19=Shipwreck
EXTD=YEAR: 1993
EXTT0=
EXTT1=
EXTT2=
EXTT3=
EXTT4=
EXTT5=
EXTT6=
EXTT7=
EXTT8=
EXTT9=
EXTT10=
EXTT11=
EXTT12=
EXTT13=
EXTT14=
EXTT15=
EXTT16=
EXTT17=
EXTT18=
EXTT19=
PLAYORDER=
